<svg width="193" height="195" viewBox="0 0 193 195" fill="none" xmlns="http://www.w3.org/2000/svg">
<g opacity="0.1">
<path d="M0.314347 89.7884C1.51299 61.1009 16.9355 33.1326 47.381 14.1141C67.678 1.48846 90.2124 -2.50701 113.706 1.48846C151.423 7.88121 181.948 35.1303 191.937 72.8476C193.375 78.1216 191.857 81.4778 187.862 82.5166C184.186 83.4755 181.389 81.7974 180.19 77.6421C177.314 67.3338 173.398 57.505 166.925 48.8747C146.788 22.1051 120.019 9.55931 86.7763 13.8744C52.9746 18.1895 29.0817 37.2879 17.9743 69.2517C7.26647 99.9369 12.94 128.784 34.9151 153.636C48.1801 168.579 65.041 177.289 84.7786 180.406C89.5732 181.205 92.1303 184.241 91.4111 188.157C90.7718 191.673 87.096 193.671 82.621 192.951C55.5317 188.556 33.8763 175.132 17.9743 152.997C6.78701 137.334 0.154529 118.955 0.314347 89.7884Z" fill="#E8CE11"/>
<path d="M41.3878 139.492C41.1481 132.86 44.8239 128.465 50.018 125.268C60.646 118.716 71.3538 112.403 82.0617 106.01C84.5389 104.572 86.9362 103.852 89.4933 105.69C91.8106 107.368 91.6508 109.846 91.1714 112.243C88.854 125.188 86.6165 138.134 84.1393 151.079C82.621 159.07 73.5913 165.303 65.8401 162.826C57.2898 160.109 50.1778 154.755 44.0248 148.202C41.7873 145.645 41.5476 142.529 41.3878 139.492Z" fill="#FCE505"/>
<path d="M60.2464 35.3701C67.9177 35.3701 73.831 39.5254 76.2282 45.6784C80.7831 57.4251 85.4178 69.1718 90.0526 80.8386C91.0914 83.4756 91.7307 85.793 89.3334 88.1103C87.0959 90.3478 84.7785 89.5487 82.3813 88.7496C70.9542 84.7541 59.6071 80.7587 48.1001 76.8431C34.7553 72.3682 31.3991 59.0233 41.0681 48.9547C44.1846 45.6784 47.3809 42.562 50.5773 39.3656C53.534 36.4888 57.1299 35.5299 60.2464 35.3701Z" fill="#FCE505"/>
<path d="M21.8898 97.6193C20.8509 91.2265 22.3692 84.5141 29.4812 80.2789C33.3967 77.8817 37.6319 77.1625 42.1069 78.8406C54.5727 83.4753 66.9587 88.1101 79.4245 92.8247C81.8218 93.7037 83.9794 95.1421 84.1392 98.0987C84.3789 101.055 82.3013 102.174 80.1437 103.373C68.477 109.606 56.97 116.158 45.0635 122.072C35.5543 126.786 24.4469 120.553 22.6889 110.085C22.1295 106.329 22.1295 102.654 21.8898 97.6193Z" fill="#FCE505"/>
<path d="M97.8839 22.5846C101.879 23.0641 107.073 23.3837 112.188 24.1828C123.295 26.0207 128.809 37.8473 123.135 47.5963C116.663 58.7037 110.03 69.6513 103.478 80.6788C102.119 82.9162 100.681 84.9939 97.6441 84.6742C94.6875 84.3546 93.5687 82.1171 92.7696 79.56C88.6144 67.0942 84.2193 54.7881 80.3038 42.2423C77.0275 31.934 85.3381 22.1851 97.8839 22.5846Z" fill="#FCE505"/>
<path d="M165.887 68.053C165.727 75.4846 160.293 82.0371 152.861 83.4755C139.836 85.9527 126.731 88.2701 113.706 90.7473C111.308 91.2267 109.55 90.3477 108.192 88.5098C106.834 86.7518 106.913 84.9139 108.112 82.9161C114.904 71.4092 121.697 59.8223 128.329 48.2354C133.523 39.1258 147.907 37.9271 154.38 46.6373C157.496 50.7925 160.533 54.9478 163.329 59.2629C165.008 61.9799 165.966 64.9365 165.887 68.053Z" fill="#FCE505"/>
<path d="M102.039 168.659C104.836 173.294 108.032 176.97 109.79 181.365C111.708 186.159 110.19 191.593 106.434 193.671C100.841 196.867 94.7674 193.511 94.4478 187.038C94.2879 180.166 98.2834 174.892 102.039 168.659Z" fill="#FCE505"/>
</g>
</svg>
